<?xml version="1.0" standalone="no"?>
<svg version="1.0" xmlns="http://www.w3.org/2000/svg"
 width="100.000000pt" height="100.000000pt" viewBox="0 0 500.000000 500.000000"
 preserveAspectRatio="xMidYMid meet">

<g transform="translate(0.000000,500.000000) scale(0.100000,-0.100000)"
fill="#e90000" stroke="none">
<path d="M1803 3755 c-84 -23 -119 -45 -274 -176 -81 -68 -388 -326 -683 -574
l-536 -450 3 -330 2 -330 27 -57 c33 -71 97 -136 168 -171 l55 -28 3 398 3
398 302 252 c166 139 397 332 512 429 214 180 480 393 502 401 13 5 180 -118
313 -231 l75 -64 98 92 97 91 -178 149 c-190 159 -219 178 -309 201 -70 18
-112 18 -180 0z"/>
<path d="M3020 3755 c-30 -9 -71 -26 -92 -38 -41 -25 -348 -282 -471 -395 -45
-41 -272 -235 -504 -430 l-423 -355 0 -396 c0 -230 4 -411 10 -432 5 -19 24
-48 41 -65 l30 -29 894 0 895 0 30 31 c17 17 35 48 40 70 5 21 10 215 10 430
l0 390 -357 300 c-196 164 -364 305 -374 312 -17 11 -30 4 -114 -65 -83 -68
-93 -79 -80 -92 7 -9 122 -106 253 -216 132 -110 238 -201 237 -203 -1 -1 -18
4 -38 13 -53 22 -136 29 -187 15 -66 -17 -140 -97 -169 -181 -31 -90 -39 -234
-17 -318 35 -135 89 -175 236 -176 78 0 88 2 122 29 67 51 128 177 128 266 0
32 -4 38 -37 54 -25 12 -71 20 -130 24 l-93 5 0 -30 c0 -43 34 -83 71 -83 33
0 36 -10 13 -49 -23 -39 -50 -53 -85 -46 -41 9 -59 49 -59 134 0 98 16 161 51
204 46 56 96 44 83 -21 -7 -35 14 -52 65 -52 48 0 99 84 89 150 -5 34 -2 33
75 -33 l57 -49 0 -279 0 -279 -715 0 -715 0 1 283 0 282 216 180 c119 99 345
288 503 420 242 203 556 454 596 478 19 11 309 -218 842 -666 l502 -422 0
-393 0 -392 51 25 c72 37 134 98 166 164 l28 56 3 336 3 336 -670 564 c-740
623 -757 636 -886 644 -46 3 -89 0 -125 -10z"/>
<path d="M2006 2585 c-3 -9 -13 -72 -23 -140 -16 -119 -18 -125 -40 -125 -28
0 -29 -15 -7 -71 14 -33 16 -60 10 -140 -4 -66 -2 -107 5 -120 18 -34 105 -65
167 -60 7 1 12 17 12 44 0 24 3 78 6 120 6 70 9 77 28 77 16 -1 30 -20 63 -89
49 -104 90 -151 128 -151 32 0 125 64 125 86 0 8 -22 44 -50 80 -27 35 -61 84
-75 109 l-26 44 80 120 c45 66 81 129 81 140 0 23 -110 94 -137 89 -9 -2 -45
-58 -85 -135 -53 -100 -74 -133 -89 -133 -23 0 -23 3 -4 132 9 56 12 105 7
110 -9 9 -103 28 -142 28 -16 0 -30 -7 -34 -15z"/>
<path d="M374 1411 c-29 -18 -54 -63 -54 -98 0 -33 33 -82 65 -97 30 -14 242
-16 2137 -16 2068 0 2104 0 2135 20 33 19 63 66 63 95 0 31 -30 81 -59 98 -27
16 -168 17 -2143 17 -2059 0 -2114 -1 -2144 -19z"/>
</g>
</svg>
