<?xml version="1.0" standalone="no"?>
<svg version="1.0" xmlns="http://www.w3.org/2000/svg"
 width="55.000000pt" height="55.000000pt" viewBox="0 0 500.000000 500.000000"
 preserveAspectRatio="xMidYMid meet">

<g transform="translate(0.000000,500.000000) scale(0.100000,-0.100000)"
fill="#e90000" stroke="none">
<path d="M1778 4114 c-61 -19 -52 -11 -802 -644 l-647 -544 3 -341 c3 -338 3
-340 28 -390 13 -27 41 -66 62 -87 34 -34 132 -98 151 -98 4 0 7 178 7 395 l0
395 76 62 c76 63 369 308 728 612 179 150 452 370 502 403 22 14 27 11 126
-63 57 -43 142 -111 190 -151 l87 -74 96 93 95 93 -167 140 c-198 166 -213
177 -277 198 -61 21 -193 21 -258 1z"/>
<path d="M3000 4113 c-25 -9 -61 -28 -82 -42 -49 -35 -332 -276 -443 -376 -49
-45 -278 -240 -508 -433 l-418 -351 1 -422 c0 -465 -2 -450 63 -489 31 -19 57
-20 907 -20 860 0 876 0 908 20 61 37 62 46 62 498 l0 408 -357 300 c-196 164
-364 304 -373 311 -14 10 -31 0 -108 -63 -51 -42 -92 -79 -92 -83 0 -4 151
-133 334 -287 l335 -279 0 -282 1 -283 -715 0 -715 0 0 278 0 279 478 400
c469 394 607 507 769 632 l82 62 147 -113 c81 -62 247 -196 368 -298 122 -102
355 -297 519 -434 l297 -250 0 -393 c0 -216 3 -393 8 -393 4 0 31 14 60 31
100 57 162 142 182 251 6 28 10 180 10 337 l0 287 -32 31 c-46 43 -1273 1071
-1332 1116 -27 20 -72 44 -99 52 -65 19 -199 18 -257 -2z"/>
<path d="M2805 2956 c-59 -22 -128 -102 -155 -178 -30 -89 -38 -233 -16 -317
35 -135 89 -175 236 -176 78 0 88 2 122 29 67 51 128 177 128 266 0 32 -4 38
-37 54 -25 12 -71 20 -130 24 l-93 5 0 -30 c0 -43 34 -83 71 -83 33 0 36 -10
13 -49 -23 -39 -50 -53 -85 -46 -41 9 -59 49 -59 134 0 98 16 161 51 204 46
56 96 44 83 -21 -7 -35 14 -52 64 -52 33 0 55 20 77 73 20 48 19 90 -2 115
-43 48 -194 75 -268 48z"/>
<path d="M2006 2945 c-3 -9 -13 -72 -23 -140 -16 -119 -18 -125 -40 -125 -28
0 -29 -15 -7 -71 14 -33 16 -60 10 -140 -4 -66 -2 -107 5 -120 18 -34 105 -65
167 -60 7 1 12 17 12 44 0 24 3 78 6 120 6 70 9 77 28 77 16 -1 30 -20 63 -89
49 -104 90 -151 128 -151 32 0 125 64 125 86 0 8 -22 44 -50 80 -27 35 -61 84
-75 109 l-26 44 80 120 c45 66 81 129 81 140 0 23 -110 94 -137 89 -9 -2 -45
-58 -85 -135 -53 -100 -74 -133 -89 -133 -23 0 -23 3 -4 132 9 56 12 105 7
110 -9 9 -103 28 -142 28 -16 0 -30 -7 -34 -15z"/>
<path d="M431 1839 c-8 -44 -31 -199 -31 -215 0 -2 -11 -4 -25 -4 -29 0 -31
-8 -9 -58 12 -27 17 -69 18 -156 l1 -120 31 -18 c33 -19 111 -37 132 -30 8 2
12 29 12 80 0 179 25 198 89 70 48 -98 91 -148 127 -148 30 0 111 55 119 81 4
13 -7 35 -37 69 -24 27 -57 75 -74 105 l-31 56 78 117 c43 64 79 124 79 132 0
18 -106 90 -132 90 -13 0 -37 -38 -83 -130 -53 -106 -69 -130 -86 -130 -21 0
-21 3 -15 58 21 188 21 179 -7 186 -15 3 -53 9 -86 12 l-59 7 -11 -54z"/>
<path d="M1040 1875 c-9 -11 -7 -44 10 -157 40 -265 71 -408 93 -429 26 -23
95 -45 170 -53 56 -6 57 -6 77 26 29 46 181 518 178 548 -4 29 -73 69 -137 77
l-40 5 -14 -48 c-8 -27 -34 -129 -57 -226 -24 -98 -45 -176 -47 -174 -2 2 -8
48 -13 102 -17 177 -32 269 -46 291 -8 13 -35 28 -66 38 -65 19 -92 19 -108 0z"/>
<path d="M4228 1883 c-33 -4 -38 -8 -38 -29 0 -30 25 -92 47 -116 12 -14 31
-18 80 -18 l65 0 -6 -37 c-23 -145 -35 -370 -22 -392 13 -20 87 -51 123 -51
42 0 53 21 53 102 0 35 5 125 12 201 10 112 10 142 -1 159 -13 20 -12 20 91
17 l103 -4 3 25 c1 14 -10 50 -25 80 l-28 55 -70 6 c-76 7 -327 8 -387 2z"/>
<path d="M1963 1866 c-8 -14 -14 -15 -37 -6 -44 16 -54 12 -80 -32 -26 -47
-77 -181 -102 -270 -14 -54 -18 -58 -45 -58 -35 0 -37 -15 -9 -72 11 -24 20
-62 20 -90 0 -45 2 -49 38 -66 53 -27 113 -37 123 -20 5 7 9 34 9 61 0 43 2
47 24 47 13 0 37 3 53 6 30 6 30 5 37 -45 8 -60 17 -66 117 -77 l62 -7 -7 64
c-22 202 -36 362 -36 420 0 131 -9 144 -103 155 -45 5 -56 4 -64 -10z m6 -278
l1 -78 -35 0 c-21 0 -35 5 -35 13 0 19 40 178 47 191 11 17 20 -38 22 -126z"/>
<path d="M2452 1864 c-65 -17 -111 -41 -119 -60 -3 -8 2 -33 12 -54 19 -42 19
-32 -9 -275 -18 -161 -11 -185 60 -217 67 -29 183 -22 247 15 114 67 181 190
182 332 0 150 -24 197 -130 246 -69 33 -153 38 -243 13z m174 -155 c28 -32 25
-165 -5 -236 -29 -65 -86 -105 -105 -74 -3 5 1 62 10 127 9 66 14 138 11 162
l-5 42 38 0 c25 0 43 -7 56 -21z"/>
<path d="M3115 1862 c-55 -19 -145 -69 -145 -80 0 -4 11 -27 24 -52 20 -39 23
-52 15 -95 -4 -27 -11 -109 -15 -182 -6 -107 -4 -136 7 -149 19 -23 88 -54
120 -54 25 0 27 3 33 61 3 34 6 83 6 109 0 26 3 50 6 53 4 4 26 -33 50 -82 53
-108 91 -152 124 -144 31 8 110 87 110 110 0 10 -27 45 -61 79 l-60 61 39 39
c45 45 62 93 62 174 0 80 -22 111 -104 144 -77 30 -139 33 -211 8z m145 -142
c39 -39 12 -123 -50 -155 -18 -9 -33 -15 -35 -13 -1 2 2 32 7 68 9 60 9 65
-11 81 -20 17 -21 18 -4 28 29 17 71 13 93 -9z"/>
<path d="M3857 1866 c-5 -12 -13 -13 -39 -5 -18 5 -38 9 -45 9 -19 0 -88 -152
-121 -265 -26 -88 -32 -100 -53 -103 -39 -6 -42 -17 -20 -67 12 -26 21 -67 21
-91 0 -34 5 -47 25 -62 28 -22 118 -47 135 -37 5 3 10 31 10 61 0 50 2 54 24
54 13 0 37 3 53 6 30 6 31 5 37 -40 5 -32 14 -51 29 -61 26 -16 142 -31 149
-19 3 5 0 50 -8 99 -7 50 -18 176 -24 280 -7 105 -14 200 -16 212 -3 17 -15
24 -54 32 -69 15 -97 14 -103 -3z m4 -256 l2 -95 -37 -3 c-41 -4 -40 -7 -21
78 37 159 53 165 56 20z"/>
<path d="M360 1041 c-52 -51 -52 -111 0 -162 l28 -29 2132 0 2132 0 28 29 c52
51 52 111 0 162 l-28 29 -2132 0 -2132 0 -28 -29z"/>
</g>
</svg>
